<?xml version="1.0" encoding="UTF-8" standalone="no"?>
<!-- Created with Inkscape (http://www.inkscape.org/) -->

<svg
        xmlns:inkscape="http://www.inkscape.org/namespaces/inkscape"
        xmlns:sodipodi="http://sodipodi.sourceforge.net/DTD/sodipodi-0.dtd"
        width="24mm"
        height="24mm"
        viewBox="0 0 23.999997 23.999997"
        version="1.1"
        id="svg1"
        inkscape:export-filename="plain2.svg"
        inkscape:export-xdpi="96"
        inkscape:export-ydpi="96"
        inkscape:version="1.3.2 (091e20e, 2023-11-25, custom)"
        sodipodi:docname="ball-gravity.svg"
        xmlns="http://www.w3.org/2000/svg"
>
    <sodipodi:namedview
            id="namedview1"
            pagecolor="#505050"
            bordercolor="#eeeeee"
            borderopacity="1"
            inkscape:showpageshadow="0"
            inkscape:pageopacity="0"
            inkscape:pagecheckerboard="0"
            inkscape:deskcolor="#505050"
            inkscape:document-units="mm"
            showgrid="true"
            inkscape:zoom="4.1798821"
            inkscape:cx="-14.952575"
            inkscape:cy="69.738809"
            inkscape:window-width="2560"
            inkscape:window-height="1369"
            inkscape:window-x="-8"
            inkscape:window-y="-8"
            inkscape:window-maximized="1"
            inkscape:current-layer="layer1">
        <inkscape:grid
                id="grid1"
                units="mm"
                originx="0"
                originy="0"
                spacingx="0.99999985"
                spacingy="0.99999985"
                empcolor="#0099e5"
                empopacity="0.30196078"
                color="#0099e5"
                opacity="0.14901961"
                empspacing="4"
                dotted="false"
                gridanglex="30"
                gridanglez="30"
                visible="true"
                enabled="true"/>
    </sodipodi:namedview>
    <defs
            id="defs1"/>
    <g
            inkscape:label="Layer 1"
            inkscape:groupmode="layer"
            id="layer1">
        <path
                id="circle14"
                style="color:#000000;fill:#000000;-inkscape-stroke:none"
                d="M 9.5001953 6.3184774 C 8.7914675 6.3184774 8.1033914 6.4091739 7.4470907 6.5794434 L 7.7995239 7.8940918 C 8.3428856 7.7552854 8.9127892 7.6817017 9.5001953 7.6817017 C 13.273829 7.6817017 16.318384 10.726257 16.318384 14.49989 C 16.318384 15.087542 16.241896 15.656591 16.102893 16.200045 L 17.420125 16.552995 C 17.59046 15.896738 17.681608 15.208651 17.681608 14.49989 C 17.681608 12.945477 17.245483 11.490688 16.489433 10.251571 A 4.5229421 4.5229421 0 0 1 13.748515 7.5106527 C 12.509266 6.7543789 11.054856 6.3184774 9.5001953 6.3184774 z "/>
        <path
                id="circle15"
                style="color:#000000;fill:#000000;-inkscape-stroke:none"
                d="M 9.5001953 3.0447754 C 8.4984735 3.0447754 7.5268928 3.1750161 6.6001139 3.4178792 L 7.0936239 5.2596273 C 7.8620512 5.0610497 8.6685166 4.9552531 9.5001953 4.9552531 C 10.92612 4.9552531 12.276204 5.2677568 13.489616 5.8249674 A 4.5229421 4.5229421 0 0 1 13.975891 3.9563477 C 12.600103 3.3698917 11.087347 3.0447754 9.5001953 3.0447754 z M 20.043221 10.024194 A 4.5229421 4.5229421 0 0 1 18.175118 10.51047 C 18.732327 11.723878 19.044832 13.073968 19.044832 14.49989 C 19.044832 15.331967 18.937752 16.137864 18.738908 16.906462 L 20.581173 17.399972 C 20.824116 16.47329 20.95531 15.50165 20.95531 14.49989 C 20.95531 12.912735 20.629678 11.399985 20.043221 10.024194 z "/>
        <circle
                style="fill:#000000;stroke-width:0.545454"
                id="circle13"
                cx="18"
                cy="6"
                r="2.9999995"/>
        <circle
                style="fill:#000000;stroke-width:0.999999"
                id="circle2"
                cx="9.499999"
                cy="14.5"
                r="5.4999995"/>
        <circle
                style="fill:none;stroke:#000000;stroke-width:1.36364"
                id="circle17"
                cx="-54.990944"
                cy="16.46941"
                r="7.5000005"/>
        <circle
                style="fill:none;stroke:#000000;stroke-width:1.90909"
                id="circle18"
                cx="-54.990944"
                cy="16.46941"
                r="10.5"/>
        <rect
                style="fill:#4d4d4d;fill-opacity:1;stroke:none;stroke-width:2.32488;stroke-dasharray:none"
                id="rect18"
                width="15.688937"
                height="37.688934"
                x="-73.001633"
                y="-38.646362"
                transform="rotate(-15)"/>
        <circle
                style="fill:#4d4d4d;fill-opacity:1;stroke-width:0.822354"
                id="circle19"
                cx="-46.490944"
                cy="7.9694099"
                r="4.5229421"/>
        <circle
                style="fill:#000000;stroke-width:0.545454"
                id="circle20"
                cx="-46.490944"
                cy="7.9694099"
                r="2.9999995"/>
        <rect
                style="fill:#4d4d4d;fill-opacity:1;stroke:none;stroke-width:2.32488;stroke-dasharray:none"
                id="rect20"
                width="15.688937"
                height="37.688934"
                x="-45.762787"
                y="-46.221626"
                transform="rotate(-75)"/>
        <rect
                style="fill:#4d4d4d;fill-opacity:1;stroke:none;stroke-width:2.16805;stroke-dasharray:none"
                id="rect21"
                width="23.45822"
                height="21.920477"
                x="-74.965584"
                y="13.048932"/>
        <circle
                style="fill:#000000;stroke-width:0.999999"
                id="circle21"
                cx="-54.990944"
                cy="16.46941"
                r="5.4999995"/>
    </g>
</svg>
