<?xml version="1.0" encoding="UTF-8" standalone="no"?>
<!-- Created with Inkscape (http://www.inkscape.org/) -->

<svg
        width="24mm"
        height="24mm"
        viewBox="0 0 23.999997 23.999997"
        version="1.1"
        id="svg1"
        inkscape:export-filename="../plain.svg"
        inkscape:export-xdpi="96"
        inkscape:export-ydpi="96"
        inkscape:version="1.3.2 (091e20e, 2023-11-25, custom)"
        sodipodi:docname="banana-face.svg"
        xmlns:inkscape="http://www.inkscape.org/namespaces/inkscape"
        xmlns:sodipodi="http://sodipodi.sourceforge.net/DTD/sodipodi-0.dtd"
        xmlns="http://www.w3.org/2000/svg"
>
  <sodipodi:namedview
     id="namedview1"
     pagecolor="#505050"
     bordercolor="#eeeeee"
     borderopacity="1"
     inkscape:showpageshadow="0"
     inkscape:pageopacity="0"
     inkscape:pagecheckerboard="0"
     inkscape:deskcolor="#505050"
     inkscape:document-units="mm"
     showgrid="true"
     inkscape:zoom="5.8327606"
     inkscape:cx="34.546249"
     inkscape:cy="38.660938"
     inkscape:window-width="1920"
     inkscape:window-height="1009"
     inkscape:window-x="2552"
     inkscape:window-y="-8"
     inkscape:window-maximized="1"
     inkscape:current-layer="svg1">
    <inkscape:grid
       id="grid1"
       units="mm"
       originx="0"
       originy="0"
       spacingx="0.99999985"
       spacingy="0.99999985"
       empcolor="#0099e5"
       empopacity="0.30196078"
       color="#0099e5"
       opacity="0.14901961"
       empspacing="4"
       dotted="false"
       gridanglex="30"
       gridanglez="30"
       visible="true"
       enabled="true" />
  </sodipodi:namedview>
  <defs
     id="defs1">
    <inkscape:path-effect
       effect="bspline"
       id="path-effect5"
       is_visible="true"
       lpeversion="1.3"
       weight="33.333333"
       steps="2"
       helper_size="0"
       apply_no_weight="true"
       apply_with_weight="true"
       only_selected="false"
       uniform="false" />
    <inkscape:path-effect
       effect="bspline"
       id="path-effect2"
       is_visible="true"
       lpeversion="1.3"
       weight="33.333333"
       steps="2"
       helper_size="0"
       apply_no_weight="true"
       apply_with_weight="true"
       only_selected="false"
       uniform="false" />
  </defs>
  <path
     d="M 6.3386312,3.6612752 C 4.8227726,3.7110632 3.710794,5.4410636 4.3465047,6.8424764 4.558965,7.3954249 4.9947481,7.7945619 5.4833862,8.0615234 l 0.00362,0.00207 c 8.923e-4,5.099e-4 0.00117,0.00104 0.00207,0.00155 l 0.6299357,0.379305 c 0.1325407,0.099716 0.2764879,0.1850368 0.4289144,0.2547648 0.00816,0.00389 0.018023,0.00827 0.018087,0.00827 0.2874529,0.1285253 0.6052486,0.2005046 0.9399943,0.2005046 1.2743853,0 2.3104533,-1.0360361 2.3104533,-2.3104533 0,-0.801299 -0.4105377,-1.5086678 -1.0314616,-1.9233968 l -0.00362,-0.0031 -5.167e-4,5.168e-4 c -0.00258,-0.00172 -0.00517,-0.00346 -0.00775,-0.00517 l 5.168e-4,-5.167e-4 c -0.00131,-8.796e-4 -0.00153,-0.0012 -0.00207,-0.00155 -0.00108,-6.979e-4 -0.00176,-0.00101 -0.00258,-0.00155 -5.736e-4,-3.569e-4 -0.00198,-0.00117 -0.00258,-0.00155 -1.912e-4,-1.243e-4 -0.00178,-8.681e-4 -0.00207,-0.00103 l -5.167e-4,-5.168e-4 c -1.594e-4,-8.92e-5 -0.00149,-0.00126 -0.00207,-0.00155 -0.00182,-0.00113 -0.00567,-0.00341 -0.0093,-0.00568 -0.00277,-0.00172 -0.0046,-0.00275 -0.00775,-0.00465 -0.00143,-8.7e-4 -0.00328,-0.0018 -0.00465,-0.00258 -0.034171,-0.021693 -0.068528,-0.042627 -0.1038696,-0.062528 l 5.167e-4,-0.00103 C 8.6363634,4.5814282 8.6359673,4.5813133 8.6356486,4.5811157 8.2947204,4.3728207 7.9531215,4.1630674 7.6119385,3.9553141 l -0.00258,-0.00155 -0.00258,-0.00155 C 7.2655801,3.7619809 6.8770686,3.6618685 6.4864258,3.661792 6.4367429,3.6598353 6.3875173,3.6596691 6.3386312,3.6612752 Z m 1.1389486,0.9467123 c 0.043883,7.425e-4 0.087988,0.00296 0.1317749,0.0062 0.2544372,0.018796 0.5019973,0.079843 0.6836792,0.1524455 0.05287,0.02269 0.1046453,0.047358 0.1550293,0.074414 0.00618,0.00363 0.013837,0.00722 0.019637,0.010852 0.036585,0.020205 0.072336,0.041707 0.107487,0.064079 l -5.168e-4,0.00103 c 0.00226,0.0014 0.00222,0.0014 0.00413,0.00258 0.0072,0.00453 0.013127,0.00768 0.016536,0.00982 2.549e-4,1.593e-4 8.139e-4,8.777e-4 0.00103,0.00103 l 5.168e-4,5.168e-4 c 3.505e-4,2.23e-4 0.00172,8.458e-4 0.00207,0.00103 0.00105,6.374e-4 0.00176,0.00124 0.0031,0.00207 6.693e-4,4.142e-4 7.111e-4,0.00121 0.0031,0.00258 0.00118,6.692e-4 0.00875,0.00413 0.00879,0.00413 l 5.168e-4,5.168e-4 c 0.5330307,0.3571491 0.8831502,0.9648129 0.8831502,1.6562296 0,1.1022004 -0.8894412,1.9926432 -1.9916097,1.9926432 -0.2952926,0 -0.5750308,-0.064591 -0.8268229,-0.1793172 -0.0043,-0.00268 -0.012371,-0.00772 -0.012402,-0.00775 -3.18e-5,0 -0.00616,-0.0011 -0.00827,-0.00155 C 6.5416496,8.3466941 6.4308415,8.2807757 6.3277791,8.2051839 l 0.0031,-0.00517 C 6.2936262,8.1755756 6.2569683,8.149303 6.2223592,8.1225016 5.9837924,7.9216032 5.7930776,7.6659183 5.6699382,7.3742269 5.4493769,6.8135024 5.4910714,6.1453782 5.7738078,5.6120605 5.9664204,5.273682 6.2550523,4.9977958 6.6032145,4.8208944 c 0.010644,-0.00478 0.020719,-0.010397 0.031523,-0.014986 l 0.012402,-0.00568 0.00775,-0.00517 C 6.8798514,4.6888684 7.1278354,4.6240087 7.3897298,4.609021 c 0.029223,-6.501e-4 0.058467,-0.00153 0.08785,-0.00103 z m 9.2123572,1.0087239 c -1.518943,0.047866 -2.621744,1.7841931 -1.991609,3.181718 0.213549,0.5556892 0.653381,0.9561235 1.144633,1.2231816 l -0.0062,-0.0031 0.63097,0.379822 c 0.138595,0.10456 0.289836,0.193491 0.450101,0.2651 0.287294,0.128334 0.604987,0.200504 0.939478,0.200504 1.274386,0 2.310453,-1.0360676 2.310453,-2.3104529 0,-0.8039441 -0.412232,-1.5133692 -1.036629,-1.927531 -3.2e-5,0 -0.0038,-0.00304 -0.0047,-0.00362 -0.0016,-0.00112 -0.0014,-0.0011 -0.0021,-0.00155 -0.0013,-8.604e-4 -0.0021,-0.00143 -0.0031,-0.00207 -7.32e-4,-4.78e-4 -0.0028,-0.00104 -0.0036,-0.00155 -3.19e-4,-1.913e-4 -0.0026,-0.00175 -0.0031,-0.00207 h -5.17e-4 c -0.0055,-0.00357 -0.01154,-0.00808 -0.01964,-0.012919 -0.0022,-0.00131 -0.0033,-0.0017 -0.0057,-0.0031 -0.03276,-0.020715 -0.06589,-0.040856 -0.09974,-0.059945 l 5.17e-4,-0.00103 c -4.78e-4,-3.187e-4 -0.0011,-7.183e-4 -0.0016,-0.00103 C 18.647035,6.3288083 18.304841,6.1187304 17.963245,5.9112671 l -0.0026,-0.00155 -0.0021,-0.00155 C 17.617459,5.7178478 17.228923,5.6172919 16.838249,5.6172282 c -0.04981,-0.00204 -0.0993,-0.00205 -0.148312,-5.168e-4 z m 1.139466,0.9461955 c 0.04347,5.418e-4 0.08688,0.00269 0.130224,0.00568 0.236209,0.016317 0.465637,0.069643 0.645439,0.1374593 0.111986,0.045221 0.218624,0.100403 0.31936,0.1643311 l -5.16e-4,5.167e-4 c 0.0026,0.00166 0.0024,0.0017 0.0047,0.0031 0.0071,0.00449 0.01281,0.00749 0.01654,0.00982 6.05e-4,4.462e-4 8.11e-4,0.00139 0.001,0.00155 0.0014,9.561e-4 0.0018,8.778e-4 0.0021,0.00103 4.78e-4,2.868e-4 0.0022,0.0013 0.0026,0.00155 0.0012,7.329e-4 0.0019,0.00108 0.0036,0.00207 8.28e-4,5.099e-4 0.001,8.349e-4 0.0041,0.00258 4.14e-4,2.55e-4 0.0019,9.133e-4 0.0031,0.00155 0.535454,0.3567668 0.887801,0.9660333 0.887801,1.6593303 0,1.1022004 -0.889926,1.9921269 -1.992126,1.9921269 -0.294273,0 -0.573084,-0.06374 -0.824239,-0.177767 -0.0059,-0.0035 -0.01389,-0.0083 -0.01395,-0.0083 0,-3.1e-5 -0.0053,-0.0011 -0.0093,-0.0021 -0.117243,-0.05504 -0.227897,-0.121525 -0.331245,-0.197404 l 0.0031,-0.0047 c -0.03744,-0.02457 -0.07327,-0.05055 -0.108004,-0.07751 C 16.335237,9.8771889 16.144352,9.6211952 16.021244,9.3296631 15.801481,8.7704045 15.842318,8.1046686 16.123047,7.5721476 c 0.19513,-0.3448797 0.489553,-0.6252191 0.845426,-0.802535 0.006,-0.00261 0.01155,-0.00572 0.01757,-0.00827 l 0.01085,-0.00517 0.0057,-0.0031 C 17.227475,6.6463489 17.475946,6.58043 17.737935,6.564974 c 0.03037,-8.924e-4 0.06097,-0.00245 0.09147,-0.00207 z m -15.1649662,3.9832191 -0.00465,0.001 -0.00568,5.17e-4 c -0.4879307,0.07843 -0.7980681,0.453358 -0.918807,0.874882 -0.1207389,0.42149 -0.076329,0.901368 0.1364258,1.270723 0.2015657,0.360591 0.4055471,0.718623 0.6066813,1.07797 7.935e-4,0.0014 0.00179,0.0027 0.00258,0.0041 0.00127,0.0024 0.00233,0.0048 0.00362,0.0072 0.01792,0.03349 0.037277,0.06708 0.057361,0.100769 0.1076642,0.180662 0.2448628,0.364369 0.4201294,0.54777 2.0196151,2.113194 4.8025707,3.895496 7.8413819,4.616773 3.038811,0.721309 6.339207,0.373186 9.347233,-1.778186 0.639439,-0.457376 1.105648,-0.884947 1.419552,-1.267623 0.313903,-0.382676 0.482051,-0.71898 0.494543,-1.018542 0.0057,-0.137895 -0.02835,-0.268688 -0.09974,-0.376722 -0.0049,-0.02256 -0.01245,-0.03951 -0.01809,-0.04961 -0.01887,-0.03359 -0.03108,-0.04273 -0.04547,-0.05736 l 0.02067,0.02532 c -0.09153,-0.141241 -0.158663,-0.348056 -0.248564,-0.552938 -0.08993,-0.204851 -0.212266,-0.421016 -0.447517,-0.532267 -0.393576,-0.18608 -0.81718,-0.136685 -1.218531,-0.03359 -0.40135,0.103126 -0.793827,0.261654 -1.139982,0.334346 l -0.0052,0.001 -0.0057,0.0015 c -2.742037,0.786287 -5.647675,1.56258 -8.437211,0.825273 C 7.7496165,13.837336 5.4445668,12.196348 3.1067871,10.698055 2.9998973,10.620774 2.8513865,10.529109 2.6644368,10.546126 Z m 0.5188314,1.342037 c 0.1451001,0.02052 0.2844941,0.07354 0.42323,0.145211 0.1653715,0.108735 0.3213099,0.209855 0.4811076,0.314193 0.1867647,0.137608 0.3786414,0.278399 0.594279,0.38809 l 5.167e-4,5.17e-4 c 0.00236,0.0012 0.00436,0.0029 0.00672,0.0041 0.528993,0.341055 1.0196182,0.646201 1.4949992,0.935343 0.1959587,0.120271 0.3931231,0.238162 0.5916951,0.355534 0.1280473,0.07502 0.2569967,0.150204 0.3818888,0.221175 0.6785421,0.388285 1.3721573,0.751053 2.0903117,1.053166 0.038816,0.01651 0.078132,0.03361 0.1167888,0.04961 0.060901,0.02498 0.1222003,0.04874 0.1834513,0.07286 0.120367,0.04777 0.2404483,0.09373 0.359668,0.136942 0.018261,0.0066 0.036516,0.01317 0.054777,0.01964 0.1583226,0.0565 0.3161806,0.108657 0.4733566,0.157097 0.0063,0.002 0.01275,0.0037 0.01912,0.0057 0.166194,0.05089 0.332254,0.09756 0.498161,0.139527 0.0092,0.0023 0.01824,0.0049 0.02739,0.0072 0.16919,0.04229 0.338995,0.08064 0.509013,0.113688 0.0061,0.0012 0.01203,0.0024 0.01809,0.0036 0.02346,0.0045 0.04676,0.01065 0.07028,0.01499 0.151757,0.02804 0.303723,0.05215 0.456819,0.07286 0.02667,0.0036 0.05388,0.0054 0.08062,0.0088 0.144809,0.01836 0.29046,0.03411 0.437182,0.04599 0.01492,0.0012 0.0295,0.0036 0.04444,0.0047 h 0.001 c 0.02763,0.0019 0.05509,0.0019 0.08268,0.0036 0.484144,0.03292 0.98206,0.03118 1.503267,-0.0041 0.01208,-7.65e-4 0.02413,-0.0018 0.03617,-0.0026 0.132222,-0.0093 0.266506,-0.02101 0.402042,-0.03462 0.06326,-0.0062 0.12649,-0.01217 0.189653,-0.01912 0.07081,-0.0081 0.142657,-0.01718 0.214457,-0.02635 0.688038,-0.0856 1.369035,-0.217709 2.044836,-0.375171 0.239428,-0.0551 0.485765,-0.115135 0.73794,-0.179318 0.226648,-0.05861 0.451977,-0.120823 0.677478,-0.182934 0.294369,-0.08015 0.594426,-0.163073 0.907438,-0.254248 0.495076,-0.142261 0.990202,-0.286068 1.48053,-0.42323 0.159469,-0.03005 0.297212,-0.04132 0.412895,-0.03721 0.0485,0.01386 0.09815,0.03028 0.145727,0.04806 0.102553,0.03834 0.193002,0.07922 0.259416,0.10542 0.0014,5.42e-4 0.0028,0.0011 0.0041,0.0015 0.0333,0.04748 0.05272,0.105492 0.04909,0.192236 -0.0076,0.182415 -0.132863,0.476657 -0.422196,0.829407 -0.289365,0.35272 -0.736056,0.765545 -1.358573,1.210779 -2.931829,2.096909 -6.121991,2.431643 -9.088335,1.727543 C 7.9105487,18.034342 5.17292,16.283102 3.19257,14.211019 3.0508352,14.062703 2.9435844,13.919225 2.8530558,13.779004 c -0.00176,-0.0033 -0.00367,-0.0072 -0.00517,-0.0098 -0.01,-0.0174 -0.021431,-0.03491 -0.042375,-0.06563 l -0.00207,0.001 c -0.016782,-0.02827 -0.03161,-0.05586 -0.046509,-0.08372 l 0.00207,-0.001 c -0.00195,-0.0035 -0.00321,-0.0069 -0.00517,-0.01033 -0.00765,-0.01233 -0.013966,-0.02598 -0.021187,-0.03876 -0.022566,-0.04519 -0.04725,-0.0909 -0.065112,-0.134876 -0.00392,-0.0095 -0.00818,-0.01877 -0.011885,-0.02842 -0.02386,-0.06179 -0.040536,-0.121656 -0.055811,-0.180867 -0.049237,-0.208611 -0.055198,-0.433839 -0.00982,-0.638721 0.073055,-0.329806 0.266929,-0.589498 0.5932454,-0.699699 z"
     style="stroke-linecap:round"
     id="path8" />
</svg>
