<?xml version="1.0" encoding="UTF-8" standalone="no"?>
<!-- Created with Inkscape (http://www.inkscape.org/) -->

<svg
   width="24mm"
   height="24mm"
   viewBox="0 0 23.999997 23.999997"
   version="1.1"
   id="svg1"
   inkscape:export-filename="p.svg"
   inkscape:export-xdpi="96"
   inkscape:export-ydpi="96"
   inkscape:version="1.3.2 (091e20e, 2023-11-25, custom)"
   sodipodi:docname="cat.svg"
   xmlns:inkscape="http://www.inkscape.org/namespaces/inkscape"
   xmlns:sodipodi="http://sodipodi.sourceforge.net/DTD/sodipodi-0.dtd"
   xmlns="http://www.w3.org/2000/svg"
   xmlns:svg="http://www.w3.org/2000/svg">
  <sodipodi:namedview
     id="namedview1"
     pagecolor="#505050"
     bordercolor="#eeeeee"
     borderopacity="1"
     inkscape:showpageshadow="0"
     inkscape:pageopacity="0"
     inkscape:pagecheckerboard="0"
     inkscape:deskcolor="#505050"
     inkscape:document-units="mm"
     showgrid="true"
     inkscape:zoom="8.2487693"
     inkscape:cx="28.064793"
     inkscape:cy="31.580469"
     inkscape:window-width="2560"
     inkscape:window-height="1369"
     inkscape:window-x="-8"
     inkscape:window-y="-8"
     inkscape:window-maximized="1"
     inkscape:current-layer="svg1">
    <inkscape:grid
       id="grid1"
       units="mm"
       originx="0"
       originy="0"
       spacingx="0.99999985"
       spacingy="0.99999985"
       empcolor="#0099e5"
       empopacity="0.30196078"
       color="#0099e5"
       opacity="0.14901961"
       empspacing="4"
       dotted="false"
       gridanglex="30"
       gridanglez="30"
       visible="true"
       enabled="true" />
  </sodipodi:namedview>
  <defs
     id="defs1" />
  <path
     d="M 12,1.27 A 11,11 0 0 0 8.52,22.73 c 0.55,0.09 0.73,-0.28 0.73,-0.55 V 20.34 C 6.22,20.98 5.58,18.88 5.58,18.88 5.03,17.59 4.3,17.23 4.3,17.23 3.38,16.58 4.4,16.58 4.4,16.58 c 1.1,0 1.73,1.1 1.73,1.1 0.92,1.65 2.57,1.2 3.21,0.92 a 2,2 0 0 1 0.64,-1.47 c -2.47,-0.27 -5.04,-1.19 -5.04,-5.5 0,-1.1 0.46,-2.1 1.2,-2.84 a 3.76,3.76 0 0 1 0,-2.93 c 0,0 0.91,-0.28 3.11,1.1 1.8,-0.49 3.7,-0.49 5.5,0 2.1,-1.38 3.02,-1.1 3.02,-1.1 a 3.76,3.76 0 0 1 0,2.93 c 0.83,0.74 1.2,1.74 1.2,2.94 0,4.21 -2.57,5.13 -5.04,5.4 0.45,0.37 0.82,0.92 0.82,2.02 v 3.03 c 0,0.27 0.1,0.64 0.73,0.55 A 11,11 0 0 0 12,1.27"
     id="base"
     sodipodi:nodetypes="cscscsccsccsccccccscsscsc"
     style="display:none;fill:#000000;fill-opacity:0.3"
     inkscape:label="base"
     inkscape:export-filename=".\p.svg"
     inkscape:export-xdpi="96"
     inkscape:export-ydpi="96" />
  <path
     d="M 12,1.27 C 6.5756237,1.2322027 1.9335015,5.1543899 1.0651944,10.50895 0.1968873,15.863511 3.3616543,21.05168 8.52,22.73 9.07,22.82 9.25,22.45 9.25,22.18 v -1.84 c -3.03,0.64 -3.6359788,-1.800212 -3.6359788,-1.800212 -0.55,-1.29 -1.28,-1.65 -1.28,-1.65 -0.92,-0.65 0.1,-0.65 0.1,-0.65 1.1,0 1.73,1.1 1.73,1.1 C 7.0840212,18.989788 8.7,18.88 9.34,18.6 9.3390035,18.042191 9.571006,17.50931 9.98,17.13 7.51,16.86 4.94,15.94 4.94,11.63 c 0,-1.1 0.46,-2.1 1.2,-2.84 -0.3961914,-0.9364872 -0.3961914,-1.9935128 0,-2.93 0,0 0.91,-0.28 3.11,1.1 1.8,-0.49 3.7,-0.49 5.5,0 2.1,-1.38 3.02,-1.1 3.02,-1.1 0.396191,0.9364872 0.396191,1.9935128 0,2.93 0.83,0.74 1.2,1.74 1.2,2.94 0,4.21 -2.57,5.13 -5.04,5.4 0.45,0.37 0.82,0.92 0.82,2.02 v 3.03 c 0,0.27 0.1,0.64 0.73,0.55 5.158346,-1.67832 8.323113,-6.866489 7.454806,-12.22105 C 22.066498,5.1543899 17.424376,1.2322027 12,1.27"
     id="stage-u1"
     sodipodi:nodetypes="cscscsccsccsccccccscsscsc"
     style="display:none;fill:#000000;fill-opacity:0.3"
     inkscape:label="stage-u1"
     inkscape:export-filename=".\p.svg"
     inkscape:export-xdpi="96"
     inkscape:export-ydpi="96" />
  <path
     d="M 12,1.27 C 6.5756237,1.2322027 1.9335015,5.1543899 1.0651944,10.50895 0.1968873,15.863511 3.3616543,21.05168 8.52,22.73 9.07,22.82 9.25,22.45 9.25,22.18 V 20.34 C 6.22,20.98 5.7448502,18.2 5.7448502,18.2 c -0.55,-1.29 -1.28,-1.65 -1.28,-1.65 -0.92,-0.65 0.1,-0.65 0.1,-0.65 1.1,0 1.73,1.1 1.73,1.1 C 7.2148502,18.65 8.7,18.88 9.34,18.6 9.3390035,18.042191 9.571006,17.50931 9.98,17.13 7.51,16.86 4.94,15.94 4.94,11.63 c 0,-1.1 0.46,-2.1 1.2,-2.84 -0.3961914,-0.9364872 -0.3961914,-1.9935128 0,-2.93 0,0 0.91,-0.28 3.11,1.1 1.8,-0.49 3.7,-0.49 5.5,0 2.1,-1.38 3.02,-1.1 3.02,-1.1 0.396191,0.9364872 0.396191,1.9935128 0,2.93 0.83,0.74 1.2,1.74 1.2,2.94 0,4.21 -2.57,5.13 -5.04,5.4 0.45,0.37 0.82,0.92 0.82,2.02 v 3.03 c 0,0.27 0.1,0.64 0.73,0.55 5.158346,-1.67832 8.323113,-6.866489 7.454806,-12.22105 C 22.066498,5.1543899 17.424376,1.2322027 12,1.27"
     id="stage-u2"
     sodipodi:nodetypes="cscscsccsccsccccccscsscsc"
     style="display:none;fill:#000000;fill-opacity:0.3"
     inkscape:label="stage-u2"
     inkscape:export-filename=".\p.svg"
     inkscape:export-xdpi="96"
     inkscape:export-ydpi="96" />
  <path
     d="M 12,1.27 C 6.5756237,1.2322027 1.9335015,5.1543899 1.0651944,10.50895 0.1968873,15.863511 3.3616543,21.05168 8.52,22.73 9.07,22.82 9.25,22.45 9.25,22.18 v -1.84 c -3.03,0.64 -3.5505114,-2.843105 -3.5505114,-2.843105 -0.55,-1.29 -1.8697007,-1.309788 -1.8697007,-1.309788 -0.92,-0.65 0.1,-0.65 0.1,-0.65 1.1,0 2.3197007,0.759788 2.3197007,0.759788 C 7.1694886,17.946895 8.7,18.88 9.34,18.6 9.3390035,18.042191 9.571006,17.50931 9.98,17.13 7.51,16.86 4.94,15.94 4.94,11.63 c 0,-1.1 0.46,-2.1 1.2,-2.84 -0.3961914,-0.9364872 -0.3961914,-1.9935128 0,-2.93 0,0 0.91,-0.28 3.11,1.1 1.8,-0.49 3.7,-0.49 5.5,0 2.1,-1.38 3.02,-1.1 3.02,-1.1 0.396191,0.9364872 0.396191,1.9935128 0,2.93 0.83,0.74 1.2,1.74 1.2,2.94 0,4.21 -2.57,5.13 -5.04,5.4 0.45,0.37 0.82,0.92 0.82,2.02 v 3.03 c 0,0.27 0.1,0.64 0.73,0.55 5.158346,-1.67832 8.323113,-6.866489 7.454806,-12.22105 C 22.066498,5.1543899 17.424376,1.2322027 12,1.27"
     id="stage-u3"
     sodipodi:nodetypes="cscscsccsccsccccccscsscsc"
     style="display:none;fill:#000000;fill-opacity:0.3"
     inkscape:label="stage-u3"
     inkscape:export-filename=".\p.svg"
     inkscape:export-xdpi="96"
     inkscape:export-ydpi="96" />
  <path
     d="M 12,1.27 C 6.5756237,1.2322027 1.9335015,5.1543899 1.0651944,10.50895 0.1968873,15.863511 3.3616543,21.05168 8.52,22.73 9.07,22.82 9.25,22.45 9.25,22.18 v -1.84 c -3.03,0.64 -3.5505114,-2.843105 -3.5505114,-2.843105 -0.55,-1.29 -1.28,-1.65 -1.28,-1.65 -0.92,-0.65 0.1,-0.65 0.1,-0.65 1.1,0 1.73,1.1 1.73,1.1 C 7.1694886,17.946895 8.7,18.88 9.34,18.6 9.3390035,18.042191 9.571006,17.50931 9.98,17.13 7.51,16.86 4.94,15.94 4.94,11.63 c 0,-1.1 0.46,-2.1 1.2,-2.84 -0.3961914,-0.9364872 -0.3961914,-1.9935128 0,-2.93 0,0 0.91,-0.28 3.11,1.1 1.8,-0.49 3.7,-0.49 5.5,0 2.1,-1.38 3.02,-1.1 3.02,-1.1 0.396191,0.9364872 0.396191,1.9935128 0,2.93 0.83,0.74 1.2,1.74 1.2,2.94 0,4.21 -2.57,5.13 -5.04,5.4 0.45,0.37 0.82,0.92 0.82,2.02 v 3.03 c 0,0.27 0.1,0.64 0.73,0.55 5.158346,-1.67832 8.323113,-6.866489 7.454806,-12.22105 C 22.066498,5.1543899 17.424376,1.2322027 12,1.27"
     id="stage-u4"
     sodipodi:nodetypes="cscscsccsccsccccccscsscsc"
     style="display:none;fill:#000000;fill-opacity:0.3"
     inkscape:label="stage-u4"
     inkscape:export-filename=".\p.svg"
     inkscape:export-xdpi="96"
     inkscape:export-ydpi="96" />
  <path
     d="M 12,1.27 C 6.5756237,1.2322027 1.9335015,5.1543899 1.0651944,10.50895 0.1968873,15.863511 3.3616543,21.05168 8.52,22.73 9.07,22.82 9.25,22.45 9.25,22.18 v -1.84 c -3.03,0.64 -3.5505114,-2.843105 -3.5505114,-2.843105 -0.55,-1.29 -2.5484389,-1.190086 -2.6635287,-1.264426 -0.9462231,-0.611197 0.7350624,-0.695362 0.7350624,-0.695362 1.1,0 2.0179646,0.124148 2.4784663,0.759788 C 7.3578282,17.826759 8.7,18.88 9.34,18.6 9.3390035,18.042191 9.571006,17.50931 9.98,17.13 7.51,16.86 4.94,15.94 4.94,11.63 c 0,-1.1 0.46,-2.1 1.2,-2.84 -0.3961914,-0.9364872 -0.3961914,-1.9935128 0,-2.93 0,0 0.91,-0.28 3.11,1.1 1.8,-0.49 3.7,-0.49 5.5,0 2.1,-1.38 3.02,-1.1 3.02,-1.1 0.396191,0.9364872 0.396191,1.9935128 0,2.93 0.83,0.74 1.2,1.74 1.2,2.94 0,4.21 -2.57,5.13 -5.04,5.4 0.45,0.37 0.82,0.92 0.82,2.02 v 3.03 c 0,0.27 0.1,0.64 0.73,0.55 5.158346,-1.67832 8.323113,-6.866489 7.454806,-12.22105 C 22.066498,5.1543899 17.424376,1.2322027 12,1.27"
     id="stage-u5"
     sodipodi:nodetypes="cscscsscsccsccccccscsscsc"
     style="display:none;fill:#000000;fill-opacity:0.3"
     inkscape:label="stage-u5"
     inkscape:export-filename=".\p.svg"
     inkscape:export-xdpi="96"
     inkscape:export-ydpi="96" />
  <path
     d="M 12,1.27 C 6.5756237,1.2322027 1.9335015,5.1543899 1.0651944,10.50895 0.1968873,15.863511 3.3616543,21.05168 8.52,22.73 9.07,22.82 9.25,22.45 9.25,22.18 v -1.84 c -3.03,0.64 -3.5505114,-2.843105 -3.5505114,-2.843105 -0.55,-1.29 -2.424818,-0.643744 -2.6875854,-0.800748 -0.7011289,-0.418923 1.0237419,-0.91989 1.0237419,-0.91989 0.6910375,-0.264623 1.7533418,-0.115002 2.2138435,0.520638 C 7.3578282,17.826759 8.7,18.88 9.34,18.6 9.3390035,18.042191 9.571006,17.50931 9.98,17.13 7.51,16.86 4.94,15.94 4.94,11.63 c 0,-1.1 0.46,-2.1 1.2,-2.84 -0.3961914,-0.9364872 -0.3961914,-1.9935128 0,-2.93 0,0 0.91,-0.28 3.11,1.1 1.8,-0.49 3.7,-0.49 5.5,0 2.1,-1.38 3.02,-1.1 3.02,-1.1 0.396191,0.9364872 0.396191,1.9935128 0,2.93 0.83,0.74 1.2,1.74 1.2,2.94 0,4.21 -2.57,5.13 -5.04,5.4 0.45,0.37 0.82,0.92 0.82,2.02 v 3.03 c 0,0.27 0.1,0.64 0.73,0.55 5.158346,-1.67832 8.323113,-6.866489 7.454806,-12.22105 C 22.066498,5.1543899 17.424376,1.2322027 12,1.27"
     id="stage-u6"
     sodipodi:nodetypes="cscscsscsccsccccccscsscsc"
     style="display:none;fill:#000000;fill-opacity:0.3"
     inkscape:label="stage-u6"
     inkscape:export-filename=".\p.svg"
     inkscape:export-xdpi="96"
     inkscape:export-ydpi="96" />
  <path
     d="M 12,1.27 C 6.5756237,1.2322027 1.9335015,5.1543899 1.0651944,10.50895 0.1968873,15.863511 3.3616543,21.05168 8.52,22.73 9.07,22.82 9.25,22.45 9.25,22.18 v -1.84 c -3.03,0.64 -4.010212,-1.097107 -4.010212,-1.097107 -0.55,-1.29 -1.28,-1.65 -1.28,-1.65 -0.92,-0.65 0.1,-0.65 0.1,-0.65 1.1,0 1.73,1.1 1.73,1.1 C 6.709788,19.692893 8.7,18.88 9.34,18.6 9.3390035,18.042191 9.571006,17.50931 9.98,17.13 7.51,16.86 4.94,15.94 4.94,11.63 c 0,-1.1 0.46,-2.1 1.2,-2.84 -0.3961914,-0.9364872 -0.3961914,-1.9935128 0,-2.93 0,0 0.91,-0.28 3.11,1.1 1.8,-0.49 3.7,-0.49 5.5,0 2.1,-1.38 3.02,-1.1 3.02,-1.1 0.396191,0.9364872 0.396191,1.9935128 0,2.93 0.83,0.74 1.2,1.74 1.2,2.94 0,4.21 -2.57,5.13 -5.04,5.4 0.45,0.37 0.82,0.92 0.82,2.02 v 3.03 c 0,0.27 0.1,0.64 0.73,0.55 5.158346,-1.67832 8.323113,-6.866489 7.454806,-12.22105 C 22.066498,5.1543899 17.424376,1.2322027 12,1.27"
     id="stage-d1"
     sodipodi:nodetypes="cscscsccsccsccccccscsscsc"
     style="display:none;fill:#000000;fill-opacity:0.3"
     inkscape:label="stage-d1"
     inkscape:export-filename=".\p.svg"
     inkscape:export-xdpi="96"
     inkscape:export-ydpi="96" />
  <path
     d="M 12,1.27 C 6.5756237,1.2322027 1.9335015,5.1543899 1.0651944,10.50895 0.1968873,15.863511 3.3616543,21.05168 8.52,22.73 9.07,22.82 9.25,22.45 9.25,22.18 V 20.34 C 6.22,20.98 5.4243152,20.977528 4.786172,19.673828 4.1696361,18.414271 3.7678838,18.319543 3.4834912,17.865063 2.7739025,16.731087 3.490034,16.956528 3.9917456,17.283105 4.7308963,17.764237 5.1294143,18.124777 5.336172,18.473828 6.2767143,20.061663 8.7,18.88 9.34,18.6 9.3390035,18.042191 9.571006,17.50931 9.98,17.13 7.51,16.86 4.94,15.94 4.94,11.63 c 0,-1.1 0.46,-2.1 1.2,-2.84 -0.3961914,-0.9364872 -0.3961914,-1.9935128 0,-2.93 0,0 0.91,-0.28 3.11,1.1 1.8,-0.49 3.7,-0.49 5.5,0 2.1,-1.38 3.02,-1.1 3.02,-1.1 0.396191,0.9364872 0.396191,1.9935128 0,2.93 0.83,0.74 1.2,1.74 1.2,2.94 0,4.21 -2.57,5.13 -5.04,5.4 0.45,0.37 0.82,0.92 0.82,2.02 v 3.03 c 0,0.27 0.1,0.64 0.73,0.55 5.158346,-1.67832 8.323113,-6.866489 7.454806,-12.22105 C 22.066498,5.1543899 17.424376,1.2322027 12,1.27"
     id="stage-d2"
     sodipodi:nodetypes="cscscssssccsccccccscsscsc"
     style="display:none;fill:#000000;fill-opacity:0.3"
     inkscape:label="stage-d2"
     inkscape:export-filename=".\p.svg"
     inkscape:export-xdpi="96"
     inkscape:export-ydpi="96" />
  <path
     d="M 12,1.27 C 6.5756237,1.2322027 1.9335015,5.1543899 1.0651944,10.50895 0.1968873,15.863511 3.3616543,21.05168 8.52,22.73 9.07,22.82 9.25,22.45 9.25,22.18 V 20.34 C 6.22,20.98 5.5125228,20.753 4.5375869,19.778073 3.5459671,18.786463 3.5192987,18.423788 3.2349061,17.969308 2.5253174,16.835332 3.2640131,17.028484 3.7431605,17.38735 4.7709907,18.157162 4.78422,18.308715 5.0875869,18.578073 6.1804878,19.548455 7.56132,19.545566 9.34,18.6 9.3390035,18.042191 9.571006,17.50931 9.98,17.13 7.51,16.86 4.94,15.94 4.94,11.63 c 0,-1.1 0.46,-2.1 1.2,-2.84 -0.3961914,-0.9364872 -0.3961914,-1.9935128 0,-2.93 0,0 0.91,-0.28 3.11,1.1 1.8,-0.49 3.7,-0.49 5.5,0 2.1,-1.38 3.02,-1.1 3.02,-1.1 0.396191,0.9364872 0.396191,1.9935128 0,2.93 0.83,0.74 1.2,1.74 1.2,2.94 0,4.21 -2.57,5.13 -5.04,5.4 0.45,0.37 0.82,0.92 0.82,2.02 v 3.03 c 0,0.27 0.1,0.64 0.73,0.55 5.158346,-1.67832 8.323113,-6.866489 7.454806,-12.22105 C 22.066498,5.1543899 17.424376,1.2322027 12,1.27"
     id="stage-d3"
     sodipodi:nodetypes="cscscssssccsccccccscsscsc"
     style="display:none;fill:#000000;fill-opacity:0.3"
     inkscape:label="stage-d3"
     inkscape:export-filename=".\p.svg"
     inkscape:export-xdpi="96"
     inkscape:export-ydpi="96" />
</svg>
